<svg xmlns="http://www.w3.org/2000/svg" version="1.1" xmlns:xlink="http://www.w3.org/1999/xlink" xmlns:svgjs="http://svgjs.com/svgjs" width="1000" height="1000"><rect width="1000" height="1000" rx="200" ry="200" fill="#ffffff"></rect><g transform="matrix(1.1450381679389312,0,0,1.1450381679389312,50.00000000000006,111.83205166299837)"><svg xmlns="http://www.w3.org/2000/svg" version="1.1" xmlns:xlink="http://www.w3.org/1999/xlink" xmlns:svgjs="http://svgjs.com/svgjs" width="786" height="678"><svg width="786" height="678" viewBox="0 0 786 678" fill="none" xmlns="http://www.w3.org/2000/svg">
<path d="M118.714 174.429H667.286C696.384 174.429 724.29 185.988 744.865 206.563C765.441 227.139 777 255.045 777 284.143V558.429C777 587.527 765.441 615.433 744.865 636.008C724.29 656.584 696.384 668.143 667.286 668.143H118.714C89.6163 668.143 61.71 656.584 41.1346 636.008C20.5591 615.433 9 587.527 9 558.429V284.143C9 255.045 20.5591 227.139 41.1346 206.563C61.71 185.988 89.6163 174.429 118.714 174.429ZM338.143 9.85712H447.857C476.955 9.85712 504.861 21.4163 525.437 41.9917C546.012 62.5671 557.571 90.4734 557.571 119.571V174.429H228.429V119.571C228.429 90.4734 239.988 62.5671 260.563 41.9917C281.139 21.4163 309.045 9.85712 338.143 9.85712Z" stroke="#006C9A" stroke-width="18" stroke-linecap="round" stroke-linejoin="round"></path>
<path d="M492.75 428.143H426.25V395.571H407.408C395.217 421.629 367.508 439 337.583 439C294.358 439 260 405.343 260 363C260 320.657 294.358 287 337.583 287C367.508 287 395.217 304.371 407.408 330.429H526V395.571H492.75V428.143ZM448.417 406.429H470.583V373.857H503.833V352.143H391.892L389.675 344.543C381.917 322.829 360.858 308.714 337.583 308.714C306.55 308.714 282.167 332.6 282.167 363C282.167 393.4 306.55 417.286 337.583 417.286C360.858 417.286 381.917 403.171 389.675 381.457L391.892 373.857H448.417V406.429ZM337.583 395.571C318.742 395.571 304.333 381.457 304.333 363C304.333 344.543 318.742 330.429 337.583 330.429C356.425 330.429 370.833 344.543 370.833 363C370.833 381.457 356.425 395.571 337.583 395.571ZM337.583 352.143C330.933 352.143 326.5 356.486 326.5 363C326.5 369.514 330.933 373.857 337.583 373.857C344.233 373.857 348.667 369.514 348.667 363C348.667 356.486 344.233 352.143 337.583 352.143Z" fill="#006C9A"></path>
<path d="M259.523 517V470.455H278.75C282.235 470.455 285.242 471.136 287.773 472.5C290.318 473.848 292.28 475.735 293.659 478.159C295.038 480.568 295.727 483.371 295.727 486.568C295.727 489.78 295.023 492.591 293.614 495C292.22 497.394 290.227 499.25 287.636 500.568C285.045 501.886 281.97 502.545 278.409 502.545H266.545V493.682H276.318C278.015 493.682 279.432 493.386 280.568 492.795C281.72 492.205 282.591 491.379 283.182 490.318C283.773 489.242 284.068 487.992 284.068 486.568C284.068 485.129 283.773 483.886 283.182 482.841C282.591 481.78 281.72 480.962 280.568 480.386C279.417 479.811 278 479.523 276.318 479.523H270.773V517H259.523ZM309.864 517.591C307.636 517.591 305.659 517.22 303.932 516.477C302.22 515.72 300.864 514.583 299.864 513.068C298.879 511.538 298.386 509.621 298.386 507.318C298.386 505.379 298.727 503.742 299.409 502.409C300.091 501.076 301.03 499.992 302.227 499.159C303.424 498.326 304.803 497.697 306.364 497.273C307.924 496.833 309.591 496.538 311.364 496.386C313.348 496.205 314.947 496.015 316.159 495.818C317.371 495.606 318.25 495.311 318.795 494.932C319.356 494.538 319.636 493.985 319.636 493.273V493.159C319.636 491.992 319.235 491.091 318.432 490.455C317.629 489.818 316.545 489.5 315.182 489.5C313.712 489.5 312.53 489.818 311.636 490.455C310.742 491.091 310.174 491.97 309.932 493.091L299.682 492.727C299.985 490.606 300.765 488.712 302.023 487.045C303.295 485.364 305.038 484.045 307.25 483.091C309.477 482.121 312.152 481.636 315.273 481.636C317.5 481.636 319.553 481.902 321.432 482.432C323.311 482.947 324.947 483.705 326.341 484.705C327.735 485.689 328.811 486.902 329.568 488.341C330.341 489.78 330.727 491.424 330.727 493.273V517H320.273V512.136H320C319.379 513.318 318.583 514.318 317.614 515.136C316.659 515.955 315.53 516.568 314.227 516.977C312.939 517.386 311.485 517.591 309.864 517.591ZM313.295 510.318C314.492 510.318 315.568 510.076 316.523 509.591C317.492 509.106 318.265 508.439 318.841 507.591C319.417 506.727 319.705 505.727 319.705 504.591V501.273C319.386 501.439 319 501.591 318.545 501.727C318.106 501.864 317.621 501.992 317.091 502.114C316.561 502.235 316.015 502.341 315.455 502.432C314.894 502.523 314.356 502.606 313.841 502.682C312.795 502.848 311.902 503.106 311.159 503.455C310.432 503.803 309.871 504.258 309.477 504.818C309.098 505.364 308.909 506.015 308.909 506.773C308.909 507.924 309.318 508.803 310.136 509.409C310.97 510.015 312.023 510.318 313.295 510.318ZM368 492.75L357.795 493.023C357.689 492.295 357.402 491.652 356.932 491.091C356.462 490.515 355.848 490.068 355.091 489.75C354.348 489.417 353.485 489.25 352.5 489.25C351.212 489.25 350.114 489.508 349.205 490.023C348.311 490.538 347.871 491.235 347.886 492.114C347.871 492.795 348.144 493.386 348.705 493.886C349.28 494.386 350.303 494.788 351.773 495.091L358.5 496.364C361.985 497.03 364.576 498.136 366.273 499.682C367.985 501.227 368.848 503.273 368.864 505.818C368.848 508.212 368.136 510.295 366.727 512.068C365.333 513.841 363.424 515.22 361 516.205C358.576 517.174 355.803 517.659 352.682 517.659C347.697 517.659 343.765 516.636 340.886 514.591C338.023 512.53 336.386 509.773 335.977 506.318L346.955 506.045C347.197 507.318 347.826 508.288 348.841 508.955C349.856 509.621 351.152 509.955 352.727 509.955C354.152 509.955 355.311 509.689 356.205 509.159C357.098 508.629 357.553 507.924 357.568 507.045C357.553 506.258 357.205 505.629 356.523 505.159C355.841 504.674 354.773 504.295 353.318 504.023L347.227 502.864C343.727 502.227 341.121 501.053 339.409 499.341C337.697 497.614 336.848 495.417 336.864 492.75C336.848 490.417 337.47 488.424 338.727 486.773C339.985 485.106 341.773 483.833 344.091 482.955C346.409 482.076 349.144 481.636 352.295 481.636C357.023 481.636 360.75 482.629 363.477 484.614C366.205 486.583 367.712 489.295 368 492.75ZM404.812 492.75L394.608 493.023C394.502 492.295 394.214 491.652 393.744 491.091C393.275 490.515 392.661 490.068 391.903 489.75C391.161 489.417 390.297 489.25 389.312 489.25C388.025 489.25 386.926 489.508 386.017 490.023C385.123 490.538 384.684 491.235 384.699 492.114C384.684 492.795 384.956 493.386 385.517 493.886C386.093 494.386 387.116 494.788 388.585 495.091L395.312 496.364C398.797 497.03 401.388 498.136 403.085 499.682C404.797 501.227 405.661 503.273 405.676 505.818C405.661 508.212 404.949 510.295 403.54 512.068C402.146 513.841 400.237 515.22 397.812 516.205C395.388 517.174 392.616 517.659 389.494 517.659C384.509 517.659 380.578 516.636 377.699 514.591C374.835 512.53 373.199 509.773 372.79 506.318L383.767 506.045C384.009 507.318 384.638 508.288 385.653 508.955C386.669 509.621 387.964 509.955 389.54 509.955C390.964 509.955 392.123 509.689 393.017 509.159C393.911 508.629 394.366 507.924 394.381 507.045C394.366 506.258 394.017 505.629 393.335 505.159C392.653 504.674 391.585 504.295 390.131 504.023L384.04 502.864C380.54 502.227 377.934 501.053 376.222 499.341C374.509 497.614 373.661 495.417 373.676 492.75C373.661 490.417 374.282 488.424 375.54 486.773C376.797 485.106 378.585 483.833 380.903 482.955C383.222 482.076 385.956 481.636 389.108 481.636C393.835 481.636 397.563 482.629 400.29 484.614C403.017 486.583 404.525 489.295 404.812 492.75ZM411.148 517V470.455H422.261V488.068H422.489C422.943 487.008 423.587 485.985 424.42 485C425.269 484.015 426.345 483.212 427.648 482.591C428.966 481.955 430.542 481.636 432.375 481.636C434.799 481.636 437.064 482.273 439.17 483.545C441.292 484.818 443.004 486.78 444.307 489.432C445.61 492.083 446.261 495.462 446.261 499.568C446.261 503.523 445.633 506.833 444.375 509.5C443.133 512.167 441.451 514.167 439.33 515.5C437.223 516.833 434.883 517.5 432.307 517.5C430.549 517.5 429.027 517.212 427.739 516.636C426.451 516.061 425.367 515.303 424.489 514.364C423.625 513.424 422.958 512.417 422.489 511.341H422.148V517H411.148ZM422.034 499.545C422.034 501.424 422.284 503.061 422.784 504.455C423.299 505.848 424.034 506.932 424.989 507.705C425.958 508.462 427.117 508.841 428.466 508.841C429.83 508.841 430.989 508.462 431.943 507.705C432.898 506.932 433.617 505.848 434.102 504.455C434.602 503.061 434.852 501.424 434.852 499.545C434.852 497.667 434.602 496.038 434.102 494.659C433.617 493.28 432.898 492.212 431.943 491.455C431.004 490.697 429.845 490.318 428.466 490.318C427.102 490.318 425.943 490.689 424.989 491.432C424.034 492.174 423.299 493.235 422.784 494.614C422.284 495.992 422.034 497.636 422.034 499.545ZM461.926 517.591C459.699 517.591 457.722 517.22 455.994 516.477C454.282 515.72 452.926 514.583 451.926 513.068C450.941 511.538 450.449 509.621 450.449 507.318C450.449 505.379 450.79 503.742 451.472 502.409C452.153 501.076 453.093 499.992 454.29 499.159C455.487 498.326 456.866 497.697 458.426 497.273C459.987 496.833 461.653 496.538 463.426 496.386C465.411 496.205 467.009 496.015 468.222 495.818C469.434 495.606 470.313 495.311 470.858 494.932C471.419 494.538 471.699 493.985 471.699 493.273V493.159C471.699 491.992 471.297 491.091 470.494 490.455C469.691 489.818 468.608 489.5 467.244 489.5C465.775 489.5 464.593 489.818 463.699 490.455C462.805 491.091 462.237 491.97 461.994 493.091L451.744 492.727C452.047 490.606 452.828 488.712 454.085 487.045C455.358 485.364 457.1 484.045 459.312 483.091C461.54 482.121 464.214 481.636 467.335 481.636C469.563 481.636 471.616 481.902 473.494 482.432C475.373 482.947 477.009 483.705 478.403 484.705C479.797 485.689 480.873 486.902 481.631 488.341C482.403 489.78 482.79 491.424 482.79 493.273V517H472.335V512.136H472.062C471.441 513.318 470.646 514.318 469.676 515.136C468.722 515.955 467.593 516.568 466.29 516.977C465.002 517.386 463.547 517.591 461.926 517.591ZM465.358 510.318C466.555 510.318 467.631 510.076 468.585 509.591C469.555 509.106 470.328 508.439 470.903 507.591C471.479 506.727 471.767 505.727 471.767 504.591V501.273C471.449 501.439 471.063 501.591 470.608 501.727C470.169 501.864 469.684 501.992 469.153 502.114C468.623 502.235 468.078 502.341 467.517 502.432C466.956 502.523 466.419 502.606 465.903 502.682C464.858 502.848 463.964 503.106 463.222 503.455C462.494 503.803 461.934 504.258 461.54 504.818C461.161 505.364 460.972 506.015 460.972 506.773C460.972 507.924 461.381 508.803 462.199 509.409C463.032 510.015 464.085 510.318 465.358 510.318ZM505.858 530.818C502.54 530.818 499.699 530.356 497.335 529.432C494.972 528.508 493.116 527.242 491.767 525.636C490.419 524.03 489.608 522.212 489.335 520.182L499.858 519.591C500.055 520.303 500.419 520.924 500.949 521.455C501.494 521.985 502.199 522.394 503.062 522.682C503.941 522.97 504.972 523.114 506.153 523.114C508.017 523.114 509.555 522.659 510.767 521.75C511.994 520.856 512.608 519.288 512.608 517.045V510.909H512.222C511.782 511.985 511.116 512.947 510.222 513.795C509.328 514.644 508.214 515.311 506.881 515.795C505.563 516.28 504.047 516.523 502.335 516.523C499.79 516.523 497.456 515.932 495.335 514.75C493.229 513.553 491.54 511.705 490.267 509.205C489.009 506.689 488.381 503.455 488.381 499.5C488.381 495.424 489.032 492.068 490.335 489.432C491.638 486.78 493.343 484.818 495.449 483.545C497.57 482.273 499.85 481.636 502.29 481.636C504.123 481.636 505.691 481.955 506.994 482.591C508.313 483.212 509.396 484.015 510.244 485C511.093 485.985 511.737 487.008 512.176 488.068H512.494V482.091H523.562V517.136C523.562 520.091 522.82 522.583 521.335 524.614C519.85 526.644 517.775 528.182 515.108 529.227C512.441 530.288 509.358 530.818 505.858 530.818ZM506.199 508.432C507.547 508.432 508.699 508.076 509.653 507.364C510.608 506.652 511.343 505.629 511.858 504.295C512.373 502.962 512.631 501.364 512.631 499.5C512.631 497.606 512.373 495.977 511.858 494.614C511.358 493.235 510.623 492.174 509.653 491.432C508.699 490.689 507.547 490.318 506.199 490.318C504.82 490.318 503.653 490.697 502.699 491.455C501.744 492.212 501.017 493.28 500.517 494.659C500.032 496.023 499.79 497.636 499.79 499.5C499.79 501.364 500.04 502.962 500.54 504.295C501.04 505.629 501.759 506.652 502.699 507.364C503.653 508.076 504.82 508.432 506.199 508.432Z" fill="#006C9A"></path>
</svg></svg></g></svg>